<svg width="32" height="32" viewBox="0 0 32 32" fill="none" xmlns="http://www.w3.org/2000/svg">
<path d="M21.9609 9.63961L21.9609 8.99961C21.9609 7.89504 21.0655 6.99961 19.9609 6.99961L9.00094 6.99961C7.89637 6.99961 7.00094 7.89504 7.00094 8.99961L7.00094 22.5996C7.00094 23.7042 7.89637 24.5996 9.00094 24.5996L19.9609 24.5996C21.0655 24.5996 21.9609 23.7042 21.9609 22.5996L21.9609 21.9596" stroke="#fffefe" stroke-width="1.67" stroke-linecap="round"/>
<path d="M24.5996 12.2793L27.7661 15.4457C27.9613 15.641 27.9613 15.9576 27.7661 16.1529L24.5996 19.3193" stroke="#fffefe" stroke-width="1.67" stroke-linecap="round"/>
<path d="M17.4395 15.7988L27.2395 15.7988" stroke="#fffefe" stroke-width="1.67" stroke-linecap="round"/>
<path d="M7 8.71224C7 7.94687 7.8247 7.46522 8.49132 7.84126L13.7826 10.8261C14.4112 11.1807 14.8 11.8464 14.8 12.5681V27.2878C14.8 28.0531 13.9753 28.5348 13.3087 28.1587L8.01736 25.1739C7.38879 24.8193 7 24.1536 7 23.4319V8.71224Z" fill="#fffefe"/>
</svg>
